<svg width="43" height="46" viewBox="0 0 43 46" fill="none" xmlns="http://www.w3.org/2000/svg">
<g clip-path="url(#clip0_208_1034)">
<path d="M21.9567 11.092C18.3344 14.0391 33.105 14.8433 25.5415 26.5262C25.5415 26.5262 28.9106 22.163 29.9281 18.3859C30.9457 14.6089 29.9868 12.5222 28.8731 11.3663C27.7594 10.2105 23.0117 10.2339 21.9567 11.092Z" fill="white"/>
<path d="M4.83203 23.3048L16.5595 24.3903C14.6932 22.02 12.9723 17.0472 12.9067 15.3146C12.834 13.4178 13.8796 11.4554 16.3555 10.7802C18.8313 10.105 21.4525 10.2011 21.4525 10.2011C21.4525 10.2011 24.0737 10.105 26.5496 10.7802C29.0254 11.4554 30.0711 13.4178 29.9984 15.3146C29.9257 17.2113 27.8672 23 25.8087 24.9952H38.5443C38.5443 24.9952 37.0016 16.8901 30.7627 15.8632C30.7627 15.8632 31.5997 14.1587 29.7335 11.0709C27.8672 7.98316 25.7126 0.48999 21.4525 0.48999C17.1925 0.48999 15.0378 7.98316 13.1716 11.0709C11.3053 14.1587 12.1423 15.8632 12.1423 15.8632C7.72051 16.5923 5.65966 20.8735 4.83203 23.3048Z" fill="white" fill-opacity="0.3"/>
<path d="M17.3634 8.32782C19.4618 5.8215 22.6621 5.54484 24.6503 5.21192C25.4709 5.07359 23.8273 1.59897 21.8556 1.24729C19.4079 0.811203 17.1618 4.73363 13.8442 11.3687C13.8442 11.3687 15.9145 9.78848 18.0996 9.15779C21.9822 8.0371 25.5388 8.95382 25.5388 8.95382C25.5388 8.95382 22.5706 7.60805 19.6939 7.7581C18.1676 7.83781 17.3634 8.32782 17.3634 8.32782Z" fill="white"/>
<path d="M6.03516 22.9203C6.03516 22.9203 6.72211 18.1679 11.8192 16.7659C11.8192 16.7659 12.478 19.1948 13.5658 21.1736C13.5658 21.1736 11.9059 19.9451 10.9611 17.8842C10.9587 17.8819 7.66696 19.0541 6.03516 22.9203Z" fill="white"/>
<path d="M36.8705 22.9203C36.8705 22.9203 36.1836 18.1679 31.0865 16.7659C31.0865 16.7659 30.4277 19.1948 29.3398 21.1736C29.3398 21.1736 30.9998 19.9451 31.9446 17.8842C31.947 17.8819 35.2387 19.0541 36.8705 22.9203Z" fill="white"/>
<path d="M15.8749 12.3605C14.1095 13.0732 12.1026 16.3884 17.903 24.1254C17.903 24.1254 17.073 21.8606 16.8526 20.6625C16.8526 20.6625 17.7811 22.2967 18.754 22.9907C18.754 22.9907 16.7401 20.0014 16.5267 17.828C16.5267 17.828 16.1868 18.3484 16.2665 18.9041C16.2665 18.9041 14.9395 17.5372 14.9137 15.5748C14.8855 13.31 15.8749 12.3605 15.8749 12.3605Z" fill="white" fill-opacity="0.3"/>
<path d="M41.2052 26.7231C41.2052 25.6399 40.326 24.7607 39.2429 24.7607H3.65965C2.57647 24.7607 1.69727 25.6399 1.69727 26.7231V43.9509H26.1181L41.2052 42.5465V26.7231Z" fill="white" fill-opacity="0.4"/>
<path d="M42.9052 43.7164H0V44.1596C0 44.9051 0.604893 45.51 1.35046 45.51H41.5548C42.3003 45.51 42.9052 44.9051 42.9052 44.1596V43.7164Z" fill="white" fill-opacity="0.3"/>
<path d="M21.7277 38.913C20.3796 38.913 19.0432 38.5496 18.2695 38.0104L19.0315 36.2988C19.7583 36.7795 20.7899 37.1077 21.7395 37.1077C22.7007 37.1077 23.0759 36.8381 23.0759 36.4395C23.0759 35.1383 18.4102 36.0878 18.4102 33.0399C18.4102 31.5746 19.6059 30.3789 22.0443 30.3789C23.111 30.3789 24.213 30.625 25.0218 31.094L24.3067 32.8172C23.5213 32.3952 22.7476 32.1842 22.0325 32.1842C21.0595 32.1842 20.7079 32.5124 20.7079 32.9227C20.7079 34.177 25.3618 33.2392 25.3618 36.2637C25.3618 37.6939 24.1661 38.913 21.7277 38.913Z" fill="white"/>
</g>
<defs>
<clipPath id="clip0_208_1034">
<rect width="42.9052" height="45.02" fill="white" transform="translate(0 0.48999)"/>
</clipPath>
</defs>
</svg>
