<svg width="30" height="30" viewBox="0 0 30 30" fill="none" xmlns="http://www.w3.org/2000/svg">
<g opacity="0.4">
<path d="M21.4992 30H8.49927C3.41534 30 0 26.4343 0 21.1264V8.87508C0 3.56717 3.41534 0 8.49927 0H21.5007C26.5847 0 30 3.56717 30 8.87508V21.1264C30 26.4343 26.5847 30 21.4992 30Z" fill="#94A3B8"/>
<path d="M21.4992 30H8.49927C3.41534 30 0 26.4343 0 21.1264V8.87508C0 3.56717 3.41534 0 8.49927 0H21.5007C26.5847 0 30 3.56717 30 8.87508V21.1264C30 26.4343 26.5847 30 21.4992 30Z" fill="white" fill-opacity="0.2"/>
</g>
<path fill-rule="evenodd" clip-rule="evenodd" d="M13.8676 10.0125C13.8676 12.0675 12.1951 13.74 10.1401 13.74C8.08364 13.74 6.41264 12.0675 6.41264 10.0125C6.41264 7.95751 8.08364 6.28351 10.1401 6.28351C12.1951 6.28351 13.8676 7.95751 13.8676 10.0125ZM26.1007 18.1314C26.4502 18.4704 26.7007 18.8574 26.8657 19.2699C27.3652 20.5179 27.1057 22.0179 26.5717 23.2539C25.9387 24.7254 24.7267 25.8369 23.1997 26.3229C22.5217 26.5404 21.8107 26.6334 21.1012 26.6334H8.52974C7.27874 26.6334 6.17174 26.3424 5.26424 25.7964C4.69574 25.4544 4.59524 24.6669 5.01674 24.1539C5.72174 23.2989 6.41774 22.4409 7.11974 21.5754C8.45774 19.9194 9.35924 19.4394 10.3612 19.8609C10.7677 20.0349 11.1757 20.2974 11.5957 20.5734C12.7147 21.3144 14.2702 22.3314 16.3192 21.2274C17.7198 20.4616 18.5328 19.1511 19.2405 18.0104L19.2547 17.9874C19.3024 17.9111 19.3496 17.8348 19.3967 17.7587C19.6373 17.3699 19.8743 16.9869 20.1427 16.6344C20.4757 16.1979 21.7117 14.8329 23.3092 15.8049C24.3277 16.4169 25.1842 17.2449 26.1007 18.1314Z" fill="#94A3B8"/>
<path fill-rule="evenodd" clip-rule="evenodd" d="M13.8676 10.0125C13.8676 12.0675 12.1951 13.74 10.1401 13.74C8.08364 13.74 6.41264 12.0675 6.41264 10.0125C6.41264 7.95751 8.08364 6.28351 10.1401 6.28351C12.1951 6.28351 13.8676 7.95751 13.8676 10.0125ZM26.1007 18.1314C26.4502 18.4704 26.7007 18.8574 26.8657 19.2699C27.3652 20.5179 27.1057 22.0179 26.5717 23.2539C25.9387 24.7254 24.7267 25.8369 23.1997 26.3229C22.5217 26.5404 21.8107 26.6334 21.1012 26.6334H8.52974C7.27874 26.6334 6.17174 26.3424 5.26424 25.7964C4.69574 25.4544 4.59524 24.6669 5.01674 24.1539C5.72174 23.2989 6.41774 22.4409 7.11974 21.5754C8.45774 19.9194 9.35924 19.4394 10.3612 19.8609C10.7677 20.0349 11.1757 20.2974 11.5957 20.5734C12.7147 21.3144 14.2702 22.3314 16.3192 21.2274C17.7198 20.4616 18.5328 19.1511 19.2405 18.0104L19.2547 17.9874C19.3024 17.9111 19.3496 17.8348 19.3967 17.7587C19.6373 17.3699 19.8743 16.9869 20.1427 16.6344C20.4757 16.1979 21.7117 14.8329 23.3092 15.8049C24.3277 16.4169 25.1842 17.2449 26.1007 18.1314Z" fill="white" fill-opacity="0.2"/>
</svg>
